<?xml version="1.0" encoding="UTF-8"?><svg xmlns="http://www.w3.org/2000/svg" viewBox="0 0 320.66 240.49"><defs><style>.d{fill:#fff;}.e{fill:#d80027;}</style></defs><g id="a"/><g id="b"><g id="c"><g><g><rect class="d" x="93.11" width="134.76" height="240.49"/><rect class="e" x="227.87" width="92.79" height="240.49"/><rect class="e" width="93.11" height="240.49"/></g><path class="e" d="M187.79,137.5c2.2,4.48,4.25,8.68,6.68,13.62h-27.27v20.53h-13.53v-20.22h-27.57c2.44-5.11,4.5-9.42,6.68-13.99-9.06-4.56-17.84-8.99-27.19-13.71,3.87-1.94,6.99-3.66,10.25-5.08,2.43-1.05,3.49-2.5,3.27-5.23-.25-3.11-.06-6.26-.06-10.15,9.28,4.61,17.79,8.84,26.3,13.07,.22-.22,.43-.44,.65-.65-4.19-8.49-8.38-16.99-12.77-25.89,1.64-.13,2.64-.45,3.54-.26,7.67,1.6,12.25-1.92,15.56-8.54,2.02-4.06,4.98-7.63,7.99-12.14,3.72,5.58,7.34,10.51,10.39,15.76,2.21,3.79,4.9,5.57,9.31,4.94,2.2-.31,4.48-.05,7.55-.05-4.57,9.23-8.79,17.72-13,26.21,.23,.22,.47,.44,.7,.66,8.51-4.22,17.03-8.45,26.3-13.05,0,3.93-.26,7.3,.12,10.6,.16,1.5,1.27,3.37,2.53,4.16,3.21,2.04,6.74,3.58,10.85,5.68-9.41,4.75-18.19,9.16-27.28,13.74Z"/></g></g></g></svg>