<?xml version="1.0" encoding="UTF-8"?><svg xmlns="http://www.w3.org/2000/svg" viewBox="0 0 321.24 219.47"><defs><style>.d{fill:#fff;}.e{fill:#d80027;}</style></defs><g id="a"/><g id="b"><g id="c"><g><path class="e" d="M179.81,121.16c1.54,3.09,2.98,5.98,4.69,9.38l-19.12,.67v14.4l-9.49,.33v-14.18l-19.33,.67c1.71-3.64,3.15-6.72,4.68-9.97-6.35-2.98-12.51-5.87-19.06-8.95,2.71-1.45,4.9-2.74,7.19-3.81,1.7-.8,2.45-1.84,2.29-3.75-.18-2.17-.04-4.39-.04-7.11,6.5,3,12.47,5.76,18.44,8.52,.15-.16,.3-.32,.45-.47-2.93-5.85-5.88-11.7-8.95-17.84,1.15-.13,1.85-.38,2.48-.27,5.37,.94,8.59-1.65,10.91-6.37,1.42-2.89,3.49-5.47,5.6-8.71,2.61,3.82,5.14,7.19,7.28,10.8,1.55,2.6,3.44,3.79,6.53,3.24,1.54-.27,3.14-.15,5.3-.22-3.21,6.59-6.16,12.64-9.11,18.69,.16,.15,.33,.3,.49,.45,5.97-3.17,11.94-6.34,18.44-9.79,0,2.75-.18,5.13,.08,7.43,.11,1.05,.89,2.33,1.78,2.85,2.25,1.35,4.73,2.35,7.61,3.71-6.6,3.56-12.75,6.87-19.12,10.3Z"/><path class="d" d="M101.75,7.13V216.46l117.63-4.11V3.02L101.75,7.13Zm82.75,123.42l-19.12,.67v14.4l-9.49,.33v-14.18l-19.33,.67c1.71-3.64,3.15-6.72,4.68-9.97-6.35-2.98-12.51-5.87-19.06-8.95,2.71-1.45,4.9-2.74,7.19-3.81,1.7-.8,2.45-1.84,2.29-3.75-.18-2.17-.04-4.39-.04-7.11,6.5,3,12.47,5.76,18.44,8.52,.15-.16,.3-.32,.45-.47-2.93-5.85-5.88-11.7-8.95-17.84,1.15-.13,1.85-.38,2.48-.27,5.37,.94,8.59-1.65,10.91-6.37,1.42-2.89,3.49-5.47,5.6-8.71,2.61,3.82,5.14,7.19,7.28,10.8,1.55,2.6,3.44,3.79,6.53,3.24,1.54-.27,3.14-.15,5.3-.22-3.21,6.59-6.16,12.64-9.11,18.69,.16,.15,.33,.3,.49,.45,5.97-3.17,11.94-6.34,18.44-9.79,0,2.75-.18,5.13,.08,7.43,.11,1.05,.89,2.33,1.78,2.85,2.25,1.35,4.73,2.35,7.61,3.71-6.6,3.56-12.75,6.87-19.12,10.3,1.54,3.09,2.98,5.98,4.69,9.38Z"/><path class="e" d="M321.24,15.16V193.09c0,.18,0,.36-.01,.54-.08,2.54-.77,4.94-1.93,7.08-2.66,4.95-7.83,8.42-13.76,8.63l-86.17,3.01V3.02L305.54,0c3.28-.11,6.33,.79,8.85,2.43,4.14,2.68,6.85,7.34,6.85,12.73Z"/><path class="e" d="M101.75,7.13V216.46l-86.05,3c-3.24,.11-6.26-.77-8.76-2.36-4.19-2.67-6.94-7.37-6.94-12.79V26.38c0-.14,0-.28,.01-.43,.06-2.55,.74-4.97,1.88-7.11,2.66-5,7.84-8.5,13.81-8.71l86.05-3Z"/></g></g></g></svg>