<?xml version="1.0" encoding="UTF-8"?><svg xmlns="http://www.w3.org/2000/svg" viewBox="0 0 320.66 240.49"><defs><style>.d{fill:#fff;}.e{fill:#d80027;}.f{fill:#0052b4;}</style></defs><g id="a"/><g id="b"><g id="c"><g><rect class="f" width="320.66" height="240.49"/><g><polygon class="d" points="137.35 146.33 137.35 240.49 124.16 240.49 124.16 169.15 15.68 240.49 1.22 240.49 121.62 161.32 89.76 161.32 0 220.33 0 200.52 59.63 161.32 0 161.32 0 146.33 137.35 146.33"/><polygon class="d" points="320.66 94.14 320.66 146.33 183.32 146.33 183.32 240.49 137.35 240.49 137.35 146.33 0 146.33 0 94.14 137.35 94.14 137.35 0 183.32 0 183.32 94.14 320.66 94.14"/><path class="d" d="M14.82,0H0V10.38L87.31,79.16h28L14.82,0Z"/><polygon class="d" points="137.35 0 137.35 94.14 0 94.14 0 79.16 74.59 79.16 0 20.39 0 10.38 87.31 79.16 115.31 79.16 14.82 0 41.31 0 124.16 65.27 124.16 0 137.35 0"/><polygon class="e" points="115.31 79.16 87.31 79.16 0 10.38 0 0 14.82 0 115.31 79.16"/><path class="d" d="M233.18,161.32h-28.01l100.48,79.17h15.01v-10.24l-87.48-68.93Z"/><polygon class="d" points="320.66 161.32 245.89 161.32 320.66 220.22 320.66 230.25 233.18 161.32 205.17 161.32 305.65 240.49 279.17 240.49 196.52 175.38 196.52 240.49 183.32 240.49 183.32 146.33 320.66 146.33 320.66 161.32"/><polygon class="e" points="320.66 230.25 320.66 240.49 305.65 240.49 205.17 161.32 233.18 161.32 320.66 230.25"/><polygon class="d" points="121.62 161.32 1.22 240.49 0 240.49 0 220.33 89.76 161.32 121.62 161.32"/><polygon class="e" points="121.62 161.32 1.22 240.49 0 240.49 0 220.33 89.76 161.32 121.62 161.32"/><polygon class="d" points="320.66 40.12 261.26 79.16 320.66 79.16 320.66 94.14 183.32 94.14 183.32 0 196.52 0 196.52 71.46 305.22 0 319.69 0 199.27 79.16 231.12 79.16 320.66 20.3 320.66 40.12"/><polygon class="d" points="320.66 0 320.66 20.3 231.12 79.16 199.27 79.16 319.69 0 320.66 0"/><polygon class="e" points="320.66 0 320.66 20.3 231.12 79.16 199.27 79.16 319.69 0 320.66 0"/><polygon class="e" points="320.66 94.14 320.66 146.33 183.32 146.33 183.32 240.49 137.35 240.49 137.35 146.33 0 146.33 0 94.14 137.35 94.14 137.35 0 183.32 0 183.32 94.14 320.66 94.14"/></g></g></g></g></svg>