<?xml version="1.0" encoding="UTF-8"?><svg xmlns="http://www.w3.org/2000/svg" viewBox="0 0 321.24 219.47"><defs><style>.d{fill:#fff;}.e{fill:#d80027;}.f{fill:#0052b4;}</style></defs><g id="a"/><g id="b"><g id="c"><g><polygon class="d" points="321.24 69.91 321.24 138.34 194.84 142.76 194.84 213.21 126.41 215.6 126.41 145.15 0 149.56 0 81.13 126.41 76.71 126.41 6.27 194.84 3.88 194.84 74.33 321.24 69.91"/><polygon class="f" points="279.52 210.25 194.84 213.21 194.84 154.45 279.52 210.25"/><path class="f" d="M321.24,138.34v54.75c0,.18,0,.36-.01,.54l-79.69-52.51,79.71-2.78Z"/><polygon class="f" points="321.24 32.18 321.24 69.91 256.07 72.19 321.24 32.18"/><polygon class="f" points="305.43 .01 194.84 67.91 194.84 3.88 305.43 .01"/><polygon class="f" points="126.41 6.27 126.41 65.15 41.56 9.23 126.41 6.27"/><path class="f" d="M79.53,78.35L0,81.13V26.38c0-.14,0-.28,.01-.43l79.52,52.4Z"/><polygon class="f" points="65.38 147.28 0 187.42 0 149.56 65.38 147.28"/><polygon class="f" points="126.41 151.68 126.41 215.6 16.02 219.45 126.41 151.68"/><path class="d" d="M41.56,9.23l-25.86,.9c-5.97,.21-11.15,3.72-13.81,8.71C.75,20.98,.07,23.4,.01,25.95l79.52,52.4,46.88-1.64v-11.57L41.56,9.23Z"/><path class="e" d="M118.04,77.01l-26.48,.92L1.89,18.84c2.66-5,7.84-8.5,13.81-8.71l.81-.03L118.04,77.01Z"/><path class="d" d="M241.53,141.13l-46.69,1.63v11.7l84.68,55.8,26.03-.91c5.94-.21,11.1-3.68,13.76-8.63,1.15-2.14,1.84-4.54,1.93-7.08l-79.69-52.51Z"/><path class="e" d="M319.3,200.72c-2.66,4.95-7.83,8.42-13.76,8.63l-.98,.03-101.53-66.9,26.48-.92,89.79,59.17Z"/><path class="d" d="M126.41,145.15v6.53L16.02,219.45h-.32c-3.24,.12-6.26-.75-8.76-2.35-4.19-2.67-6.94-7.37-6.94-12.79v-16.89l65.38-40.14,61.02-2.13Z"/><path class="e" d="M124.01,145.23L6.94,217.11c-4.19-2.67-6.94-7.37-6.94-12.79v-.39l93.88-57.64,30.13-1.05Z"/><path class="d" d="M321.24,15.16v17.02l-65.17,40.01-61.23,2.14v-6.41L305.43,.01h.11c3.28-.12,6.33,.78,8.85,2.42,4.14,2.68,6.85,7.34,6.85,12.73Z"/><path class="e" d="M321.24,15.16v.51l-93.67,57.51-30.13,1.05L314.39,2.44c4.14,2.68,6.85,7.34,6.85,12.73Z"/><polygon class="e" points="321.24 82.39 321.24 125.86 182.36 130.71 182.36 213.64 138.88 215.16 138.88 132.23 0 137.08 0 93.6 138.88 88.75 138.88 5.83 182.36 4.31 182.36 87.24 321.24 82.39"/></g></g></g></svg>