<?xml version="1.0" encoding="UTF-8"?><svg xmlns="http://www.w3.org/2000/svg" viewBox="0 0 321.24 219.47"><defs><style>.d{fill:#fff;}.e{fill:#d80027;}.f{fill:#0052b4;}</style></defs><g id="a"/><g id="b"><g id="c"><g><path class="e" d="M321.24,15.16v.4l-160.62,5.61V5.07L305.54,0c3.28-.11,6.33,.79,8.85,2.43,4.14,2.68,6.85,7.34,6.85,12.73Z"/><polygon class="d" points="321.24 15.57 321.24 31.66 160.62 37.27 160.62 21.17 321.24 15.57"/><polygon class="e" points="321.24 31.66 321.24 47.77 160.62 53.38 160.62 37.27 321.24 31.66"/><polygon class="d" points="321.24 47.77 321.24 63.87 160.62 69.48 160.62 53.38 321.24 47.77"/><polygon class="e" points="321.24 63.87 321.24 79.97 160.62 85.58 160.62 69.48 321.24 63.87"/><polygon class="d" points="321.24 79.97 321.24 96.08 160.62 101.68 160.62 85.58 321.24 79.97"/><polygon class="e" points="321.24 96.08 321.24 112.18 160.62 117.79 160.62 101.68 321.24 96.08"/><polygon class="d" points="321.24 112.18 321.24 128.28 0 139.5 0 123.4 321.24 112.18"/><polygon class="e" points="0 139.5 321.24 128.28 321.24 144.38 0 155.6 0 139.5"/><polygon class="d" points="0 155.6 321.24 144.38 321.24 160.49 0 171.7 0 155.6"/><polygon class="e" points="0 171.7 321.24 160.49 321.24 176.59 0 187.81 0 171.7"/><polygon class="d" points="0 187.81 321.24 176.59 321.24 192.69 0 203.91 0 187.81"/><path class="e" d="M321.24,192.69v.4c0,.18,0,.36-.01,.54-.08,2.54-.77,4.94-1.93,7.08-2.66,4.95-7.83,8.42-13.76,8.63L15.7,219.46c-3.24,.11-6.26-.77-8.76-2.36-4.19-2.67-6.94-7.37-6.94-12.79v-.4l321.24-11.22Z"/><path class="f" d="M15.7,10.13c-5.97,.21-11.15,3.72-13.81,8.71C.75,20.99,.07,23.4,.01,25.95c-.01,.15-.01,.28-.01,.43V123.4l160.62-5.61V5.07L15.7,10.13Zm107.55,29.35c3.96-.14,7.16,2.95,7.16,6.91s-3.2,7.27-7.16,7.41-7.16-2.96-7.16-6.91,3.21-7.27,7.16-7.41Zm-14.31-15.6c3.95-.14,7.16,2.96,7.16,6.91s-3.21,7.27-7.16,7.41-7.16-2.95-7.16-6.91,3.2-7.27,7.16-7.41Zm7.16,39.11c0,3.96-3.21,7.27-7.16,7.41s-7.16-2.96-7.16-6.91,3.2-7.27,7.16-7.41,7.16,2.96,7.16,6.91Zm-21.47-22.5c3.96-.14,7.16,2.95,7.16,6.91s-3.21,7.27-7.16,7.41-7.16-2.96-7.16-6.91,3.21-7.27,7.16-7.41Zm-14.31-15.6c3.96-.14,7.16,2.96,7.16,6.91s-3.2,7.27-7.16,7.41-7.16-2.95-7.16-6.91,3.2-7.27,7.16-7.41Zm7.16,39.11c0,3.96-3.2,7.27-7.16,7.41s-7.16-2.96-7.16-6.91,3.2-7.27,7.16-7.41,7.16,2.96,7.16,6.91Zm-21.47-22.5c3.95-.14,7.16,2.95,7.16,6.91s-3.21,7.27-7.16,7.41-7.16-2.96-7.16-6.91,3.21-7.27,7.16-7.41Zm-14.32-15.6c3.96-.14,7.16,2.96,7.16,6.91s-3.2,7.27-7.16,7.41-7.16-2.95-7.16-6.91,3.21-7.27,7.16-7.41Zm7.16,39.11c0,3.96-3.2,7.27-7.16,7.41s-7.16-2.96-7.16-6.91,3.21-7.27,7.16-7.41,7.16,2.96,7.16,6.91Zm-21.47-22.5c3.95-.14,7.16,2.95,7.16,6.91s-3.21,7.27-7.16,7.41-7.16-2.96-7.16-6.91,3.2-7.27,7.16-7.41Zm-15.01-15.58c.11,0,.22,0,.33,0,.01,0,.03,0,.04,0,.11-.02,.22-.02,.33-.02,3.95-.14,7.16,2.96,7.16,6.91s-3.21,7.27-7.16,7.41c-.11,0-.22,0-.33,0-.01,0-.03,0-.04,0-.11,.02-.22,.02-.33,.02-3.96,.14-7.16-2.95-7.16-6.91s3.2-7.27,7.16-7.41Zm7.85,39.08c0,3.96-3.21,7.27-7.16,7.41s-7.16-2.96-7.16-6.91,3.21-7.27,7.16-7.41,7.16,2.96,7.16,6.91Zm-7.16,39.61c-3.96,.14-7.16-2.96-7.16-6.91s3.21-7.27,7.16-7.41,7.16,2.95,7.16,6.91-3.21,7.27-7.16,7.41Zm14.31-16.6c-3.96,.14-7.16-2.95-7.16-6.91s3.2-7.27,7.16-7.41,7.16,2.96,7.16,6.91-3.21,7.27-7.16,7.41Zm14.31,15.6c-3.95,.14-7.16-2.96-7.16-6.91s3.21-7.27,7.16-7.41,7.16,2.95,7.16,6.91-3.2,7.27-7.16,7.41Zm14.32-16.6c-3.96,.14-7.16-2.95-7.16-6.91s3.21-7.27,7.16-7.41,7.16,2.96,7.16,6.91-3.21,7.27-7.16,7.41Zm14.31,15.6c-3.96,.14-7.16-2.96-7.16-6.91s3.2-7.27,7.16-7.41,7.16,2.95,7.16,6.91-3.2,7.27-7.16,7.41Zm14.31-16.6c-3.95,.14-7.16-2.95-7.16-6.91s3.21-7.27,7.16-7.41,7.16,2.96,7.16,6.91-3.21,7.27-7.16,7.41Zm14.32,15.6c-3.96,.14-7.16-2.96-7.16-6.91s3.2-7.27,7.16-7.41,7.16,2.95,7.16,6.91-3.21,7.27-7.16,7.41Zm14.31-16.6c-3.95,.14-7.16-2.95-7.16-6.91s3.21-7.27,7.16-7.41,7.16,2.96,7.16,6.91-3.2,7.27-7.16,7.41Zm14.31,15.6c-3.95,.14-7.16-2.96-7.16-6.91s3.21-7.27,7.16-7.41,7.16,2.95,7.16,6.91-3.21,7.27-7.16,7.41Zm0-32.2c-3.95,.14-7.16-2.96-7.16-6.91s3.21-7.27,7.16-7.41,7.16,2.96,7.16,6.91-3.21,7.27-7.16,7.41Zm0-32.21c-3.95,.14-7.16-2.95-7.16-6.91s3.21-7.27,7.16-7.41,7.16,2.96,7.16,6.91-3.21,7.27-7.16,7.41Z"/><path class="d" d="M15.21,34.3c0-3.96,3.2-7.27,7.16-7.41,.11,0,.22,0,.33,0,.01,0,.03,0,.04,0,.11-.02,.22-.02,.33-.02,3.95-.14,7.16,2.96,7.16,6.91s-3.21,7.27-7.16,7.41c-.11,0-.22,0-.33,0-.01,0-.03,0-.04,0-.11,.02-.22,.02-.33,.02-3.96,.14-7.16-2.95-7.16-6.91Z"/><path class="d" d="M30.22,98.19c0,3.95-3.21,7.27-7.16,7.41s-7.16-2.96-7.16-6.91,3.21-7.27,7.16-7.41,7.16,2.95,7.16,6.91Z"/><path class="d" d="M30.22,65.98c0,3.96-3.21,7.27-7.16,7.41s-7.16-2.96-7.16-6.91,3.21-7.27,7.16-7.41,7.16,2.96,7.16,6.91Z"/><ellipse class="d" cx="37.37" cy="81.83" rx="7.28" ry="7.03" transform="translate(-47.19 51.13) rotate(-45.5)"/><ellipse class="d" cx="37.37" cy="49.63" rx="7.28" ry="7.03" transform="translate(-24.22 41.5) rotate(-45.5)"/><path class="d" d="M58.84,97.19c0,3.95-3.2,7.27-7.16,7.41s-7.16-2.96-7.16-6.91,3.21-7.27,7.16-7.41,7.16,2.95,7.16,6.91Z"/><path class="d" d="M58.84,64.98c0,3.96-3.2,7.27-7.16,7.41s-7.16-2.96-7.16-6.91,3.21-7.27,7.16-7.41,7.16,2.96,7.16,6.91Z"/><path class="d" d="M44.53,33.28c0-3.95,3.21-7.27,7.16-7.41s7.16,2.96,7.16,6.91-3.2,7.27-7.16,7.41-7.16-2.95-7.16-6.91Z"/><path class="d" d="M73.15,80.59c0,3.96-3.21,7.27-7.16,7.41s-7.16-2.95-7.16-6.91,3.21-7.27,7.16-7.41,7.16,2.96,7.16,6.91Z"/><path class="d" d="M58.84,48.88c0-3.96,3.21-7.27,7.16-7.41s7.16,2.95,7.16,6.91-3.21,7.27-7.16,7.41-7.16-2.96-7.16-6.91Z"/><path class="d" d="M87.47,96.19c0,3.95-3.2,7.27-7.16,7.41s-7.16-2.96-7.16-6.91,3.2-7.27,7.16-7.41,7.16,2.95,7.16,6.91Z"/><path class="d" d="M87.47,63.98c0,3.96-3.2,7.27-7.16,7.41s-7.16-2.96-7.16-6.91,3.2-7.27,7.16-7.41,7.16,2.96,7.16,6.91Z"/><path class="d" d="M73.15,32.28c0-3.95,3.2-7.27,7.16-7.41s7.16,2.96,7.16,6.91-3.2,7.27-7.16,7.41-7.16-2.95-7.16-6.91Z"/><path class="d" d="M101.78,79.59c0,3.96-3.21,7.27-7.16,7.41s-7.16-2.95-7.16-6.91,3.21-7.27,7.16-7.41,7.16,2.96,7.16,6.91Z"/><path class="d" d="M87.47,47.88c0-3.96,3.21-7.27,7.16-7.41s7.16,2.95,7.16,6.91-3.21,7.27-7.16,7.41-7.16-2.96-7.16-6.91Z"/><ellipse class="d" cx="108.94" cy="95.44" rx="7.28" ry="7.03" transform="translate(-35.49 106.24) rotate(-45.5)"/><path class="d" d="M116.09,62.98c0,3.96-3.21,7.27-7.16,7.41s-7.16-2.96-7.16-6.91,3.2-7.27,7.16-7.41,7.16,2.96,7.16,6.91Z"/><ellipse class="d" cx="108.94" cy="31.03" rx="7.28" ry="7.03" transform="translate(10.45 86.97) rotate(-45.49)"/><path class="d" d="M130.4,78.59c0,3.96-3.2,7.27-7.16,7.41s-7.16-2.95-7.16-6.91,3.21-7.27,7.16-7.41,7.16,2.96,7.16,6.91Z"/><path class="d" d="M116.09,46.88c0-3.96,3.21-7.27,7.16-7.41s7.16,2.95,7.16,6.91-3.2,7.27-7.16,7.41-7.16-2.96-7.16-6.91Z"/><path class="d" d="M144.72,94.19c0,3.95-3.21,7.27-7.16,7.41s-7.16-2.96-7.16-6.91,3.21-7.27,7.16-7.41,7.16,2.95,7.16,6.91Z"/><path class="d" d="M144.72,61.98c0,3.96-3.21,7.27-7.16,7.41s-7.16-2.96-7.16-6.91,3.21-7.27,7.16-7.41,7.16,2.96,7.16,6.91Z"/><path class="d" d="M130.4,30.28c0-3.95,3.21-7.27,7.16-7.41s7.16,2.96,7.16,6.91-3.21,7.27-7.16,7.41-7.16-2.95-7.16-6.91Z"/></g></g></g></svg>