<?xml version="1.0" encoding="UTF-8"?><svg xmlns="http://www.w3.org/2000/svg" viewBox="0 0 320.66 240.5"><defs><style>.d{fill:#fff;}.e{fill:#d80027;}.f{fill:#0052b4;}</style></defs><g id="a"/><g id="b"><g id="c"><g><rect class="f" width="160.33" height="129.5"/><rect class="e" x="160.33" width="160.33" height="18.51"/><rect class="d" x="160.33" y="18.51" width="160.33" height="18.49"/><rect class="e" x="160.33" y="37" width="160.33" height="18.5"/><rect class="d" x="160.33" y="55.5" width="160.33" height="18.5"/><rect class="e" x="160.33" y="74" width="160.33" height="18.5"/><rect class="d" x="160.33" y="92.5" width="160.33" height="18.5"/><rect class="e" x="160.33" y="111" width="160.33" height="18.5"/><rect class="d" y="129.5" width="320.66" height="18.5"/><rect class="e" y="148" width="320.66" height="18.5"/><rect class="d" y="166.5" width="320.66" height="18.5"/><rect class="e" y="185" width="320.66" height="18.5"/><rect class="d" y="203.5" width="320.66" height="18.5"/><rect class="e" y="222" width="320.66" height="18.5"/><g><g><path class="d" d="M110.28,25.07l2.69,1.41c.55,.29,1.19-.18,1.08-.79l-.51-3c-.04-.24,.04-.49,.21-.66l2.18-2.12c.44-.43,.2-1.18-.41-1.27l-3.01-.44c-.24-.04-.45-.19-.56-.41l-1.35-2.73c-.27-.55-1.06-.55-1.34,0l-1.35,2.73c-.11,.22-.32,.37-.56,.41l-3.01,.44c-.61,.09-.86,.84-.41,1.27l2.18,2.12c.18,.17,.26,.42,.21,.66l-.51,3c-.1,.61,.53,1.07,1.08,.79l2.69-1.41c.22-.11,.48-.11,.69,0Z"/><path class="d" d="M140.06,25.07l2.69,1.41c.55,.29,1.19-.18,1.08-.79l-.51-3c-.04-.24,.04-.49,.21-.66l2.18-2.12c.44-.43,.2-1.18-.41-1.27l-3.01-.44c-.24-.04-.45-.19-.56-.41l-1.35-2.73c-.27-.55-1.06-.55-1.34,0l-1.35,2.73c-.11,.22-.32,.37-.56,.41l-3.01,.44c-.61,.09-.86,.84-.41,1.27l2.18,2.12c.18,.17,.26,.42,.21,.66l-.51,3c-.1,.61,.53,1.07,1.08,.79l2.69-1.41c.22-.11,.48-.11,.69,0Z"/><path class="d" d="M80.51,25.07l2.69,1.41c.55,.29,1.19-.18,1.08-.79l-.51-3c-.04-.24,.04-.49,.21-.66l2.18-2.12c.44-.43,.2-1.18-.41-1.27l-3.01-.44c-.24-.04-.45-.19-.56-.41l-1.35-2.73c-.27-.55-1.06-.55-1.34,0l-1.35,2.73c-.11,.22-.32,.37-.56,.41l-3.01,.44c-.61,.09-.86,.84-.41,1.27l2.18,2.12c.18,.17,.26,.42,.21,.66l-.51,3c-.1,.61,.53,1.07,1.08,.79l2.69-1.41c.22-.11,.48-.11,.69,0Z"/><path class="d" d="M50.74,25.07l2.69,1.41c.55,.29,1.19-.18,1.08-.79l-.51-3c-.04-.24,.04-.49,.21-.66l2.18-2.12c.44-.43,.2-1.18-.41-1.27l-3.01-.44c-.24-.04-.45-.19-.56-.41l-1.35-2.73c-.27-.55-1.06-.55-1.34,0l-1.35,2.73c-.11,.22-.32,.37-.56,.41l-3.01,.44c-.61,.09-.86,.84-.41,1.27l2.18,2.12c.18,.17,.26,.42,.21,.66l-.51,3c-.1,.61,.53,1.07,1.08,.79l2.69-1.41c.22-.11,.48-.11,.69,0Z"/><path class="d" d="M20.97,25.07l2.69,1.41c.55,.29,1.19-.18,1.08-.79l-.51-3c-.04-.24,.04-.49,.21-.66l2.18-2.12c.44-.43,.2-1.18-.41-1.27l-3.01-.44c-.24-.04-.45-.19-.56-.41l-1.35-2.73c-.27-.55-1.06-.55-1.34,0l-1.35,2.73c-.11,.22-.32,.37-.56,.41l-3.01,.44c-.61,.09-.86,.84-.41,1.27l2.18,2.12c.18,.17,.26,.42,.21,.66l-.51,3c-.1,.61,.53,1.07,1.08,.79l2.69-1.41c.22-.11,.48-.11,.69,0Z"/></g><g><path class="d" d="M125.85,39.78l2.69,1.41c.55,.29,1.19-.18,1.08-.79l-.51-3c-.04-.24,.04-.49,.21-.66l2.18-2.12c.44-.43,.2-1.18-.41-1.27l-3.01-.44c-.24-.04-.45-.19-.56-.41l-1.35-2.73c-.27-.55-1.06-.55-1.34,0l-1.35,2.73c-.11,.22-.32,.37-.56,.41l-3.01,.44c-.61,.09-.86,.84-.41,1.27l2.18,2.12c.18,.17,.26,.42,.21,.66l-.51,3c-.1,.61,.53,1.07,1.08,.79l2.69-1.41c.22-.11,.48-.11,.69,0Z"/><path class="d" d="M96.08,39.78l2.69,1.41c.55,.29,1.19-.18,1.08-.79l-.51-3c-.04-.24,.04-.49,.21-.66l2.18-2.12c.44-.43,.2-1.18-.41-1.27l-3.01-.44c-.24-.04-.45-.19-.56-.41l-1.35-2.73c-.27-.55-1.06-.55-1.34,0l-1.35,2.73c-.11,.22-.32,.37-.56,.41l-3.01,.44c-.61,.09-.86,.84-.41,1.27l2.18,2.12c.18,.17,.26,.42,.21,.66l-.51,3c-.1,.61,.53,1.07,1.08,.79l2.69-1.41c.22-.11,.48-.11,.69,0Z"/><path class="d" d="M66.31,39.78l2.69,1.41c.55,.29,1.19-.18,1.08-.79l-.51-3c-.04-.24,.04-.49,.21-.66l2.18-2.12c.44-.43,.2-1.18-.41-1.27l-3.01-.44c-.24-.04-.45-.19-.56-.41l-1.35-2.73c-.27-.55-1.06-.55-1.34,0l-1.35,2.73c-.11,.22-.32,.37-.56,.41l-3.01,.44c-.61,.09-.86,.84-.41,1.27l2.18,2.12c.18,.17,.26,.42,.21,.66l-.51,3c-.1,.61,.53,1.07,1.08,.79l2.69-1.41c.22-.11,.48-.11,.69,0Z"/><path class="d" d="M36.54,39.78l2.69,1.41c.55,.29,1.19-.18,1.08-.79l-.51-3c-.04-.24,.04-.49,.21-.66l2.18-2.12c.44-.43,.2-1.18-.41-1.27l-3.01-.44c-.24-.04-.45-.19-.56-.41l-1.35-2.73c-.27-.55-1.06-.55-1.34,0l-1.35,2.73c-.11,.22-.32,.37-.56,.41l-3.01,.44c-.61,.09-.86,.84-.41,1.27l2.18,2.12c.18,.17,.26,.42,.21,.66l-.51,3c-.1,.61,.53,1.07,1.08,.79l2.69-1.41c.22-.11,.48-.11,.69,0Z"/></g><g><path class="d" d="M110.28,54.49l2.69,1.41c.55,.29,1.19-.18,1.08-.79l-.51-3c-.04-.24,.04-.49,.21-.66l2.18-2.12c.44-.43,.2-1.18-.41-1.27l-3.01-.44c-.24-.04-.45-.19-.56-.41l-1.35-2.73c-.27-.55-1.06-.55-1.34,0l-1.35,2.73c-.11,.22-.32,.37-.56,.41l-3.01,.44c-.61,.09-.86,.84-.41,1.27l2.18,2.12c.18,.17,.26,.42,.21,.66l-.51,3c-.1,.61,.53,1.07,1.08,.79l2.69-1.41c.22-.11,.48-.11,.69,0Z"/><path class="d" d="M140.06,54.49l2.69,1.41c.55,.29,1.19-.18,1.08-.79l-.51-3c-.04-.24,.04-.49,.21-.66l2.18-2.12c.44-.43,.2-1.18-.41-1.27l-3.01-.44c-.24-.04-.45-.19-.56-.41l-1.35-2.73c-.27-.55-1.06-.55-1.34,0l-1.35,2.73c-.11,.22-.32,.37-.56,.41l-3.01,.44c-.61,.09-.86,.84-.41,1.27l2.18,2.12c.18,.17,.26,.42,.21,.66l-.51,3c-.1,.61,.53,1.07,1.08,.79l2.69-1.41c.22-.11,.48-.11,.69,0Z"/><path class="d" d="M80.51,54.49l2.69,1.41c.55,.29,1.19-.18,1.08-.79l-.51-3c-.04-.24,.04-.49,.21-.66l2.18-2.12c.44-.43,.2-1.18-.41-1.27l-3.01-.44c-.24-.04-.45-.19-.56-.41l-1.35-2.73c-.27-.55-1.06-.55-1.34,0l-1.35,2.73c-.11,.22-.32,.37-.56,.41l-3.01,.44c-.61,.09-.86,.84-.41,1.27l2.18,2.12c.18,.17,.26,.42,.21,.66l-.51,3c-.1,.61,.53,1.07,1.08,.79l2.69-1.41c.22-.11,.48-.11,.69,0Z"/><path class="d" d="M50.74,54.49l2.69,1.41c.55,.29,1.19-.18,1.08-.79l-.51-3c-.04-.24,.04-.49,.21-.66l2.18-2.12c.44-.43,.2-1.18-.41-1.27l-3.01-.44c-.24-.04-.45-.19-.56-.41l-1.35-2.73c-.27-.55-1.06-.55-1.34,0l-1.35,2.73c-.11,.22-.32,.37-.56,.41l-3.01,.44c-.61,.09-.86,.84-.41,1.27l2.18,2.12c.18,.17,.26,.42,.21,.66l-.51,3c-.1,.61,.53,1.07,1.08,.79l2.69-1.41c.22-.11,.48-.11,.69,0Z"/><path class="d" d="M20.97,54.49l2.69,1.41c.55,.29,1.19-.18,1.08-.79l-.51-3c-.04-.24,.04-.49,.21-.66l2.18-2.12c.44-.43,.2-1.18-.41-1.27l-3.01-.44c-.24-.04-.45-.19-.56-.41l-1.35-2.73c-.27-.55-1.06-.55-1.34,0l-1.35,2.73c-.11,.22-.32,.37-.56,.41l-3.01,.44c-.61,.09-.86,.84-.41,1.27l2.18,2.12c.18,.17,.26,.42,.21,.66l-.51,3c-.1,.61,.53,1.07,1.08,.79l2.69-1.41c.22-.11,.48-.11,.69,0Z"/></g><g><path class="d" d="M125.85,69.2l2.69,1.41c.55,.29,1.19-.18,1.08-.79l-.51-3c-.04-.24,.04-.49,.21-.66l2.18-2.12c.44-.43,.2-1.18-.41-1.27l-3.01-.44c-.24-.04-.45-.19-.56-.41l-1.35-2.73c-.27-.55-1.06-.55-1.34,0l-1.35,2.73c-.11,.22-.32,.37-.56,.41l-3.01,.44c-.61,.09-.86,.84-.41,1.27l2.18,2.12c.18,.17,.26,.42,.21,.66l-.51,3c-.1,.61,.53,1.07,1.08,.79l2.69-1.41c.22-.11,.48-.11,.69,0Z"/><path class="d" d="M96.08,69.2l2.69,1.41c.55,.29,1.19-.18,1.08-.79l-.51-3c-.04-.24,.04-.49,.21-.66l2.18-2.12c.44-.43,.2-1.18-.41-1.27l-3.01-.44c-.24-.04-.45-.19-.56-.41l-1.35-2.73c-.27-.55-1.06-.55-1.34,0l-1.35,2.73c-.11,.22-.32,.37-.56,.41l-3.01,.44c-.61,.09-.86,.84-.41,1.27l2.18,2.12c.18,.17,.26,.42,.21,.66l-.51,3c-.1,.61,.53,1.07,1.08,.79l2.69-1.41c.22-.11,.48-.11,.69,0Z"/><path class="d" d="M66.31,69.2l2.69,1.41c.55,.29,1.19-.18,1.08-.79l-.51-3c-.04-.24,.04-.49,.21-.66l2.18-2.12c.44-.43,.2-1.18-.41-1.27l-3.01-.44c-.24-.04-.45-.19-.56-.41l-1.35-2.73c-.27-.55-1.06-.55-1.34,0l-1.35,2.73c-.11,.22-.32,.37-.56,.41l-3.01,.44c-.61,.09-.86,.84-.41,1.27l2.18,2.12c.18,.17,.26,.42,.21,.66l-.51,3c-.1,.61,.53,1.07,1.08,.79l2.69-1.41c.22-.11,.48-.11,.69,0Z"/><path class="d" d="M36.54,69.2l2.69,1.41c.55,.29,1.19-.18,1.08-.79l-.51-3c-.04-.24,.04-.49,.21-.66l2.18-2.12c.44-.43,.2-1.18-.41-1.27l-3.01-.44c-.24-.04-.45-.19-.56-.41l-1.35-2.73c-.27-.55-1.06-.55-1.34,0l-1.35,2.73c-.11,.22-.32,.37-.56,.41l-3.01,.44c-.61,.09-.86,.84-.41,1.27l2.18,2.12c.18,.17,.26,.42,.21,.66l-.51,3c-.1,.61,.53,1.07,1.08,.79l2.69-1.41c.22-.11,.48-.11,.69,0Z"/></g><g><path class="d" d="M110.28,83.91l2.69,1.41c.55,.29,1.19-.18,1.08-.79l-.51-3c-.04-.24,.04-.49,.21-.66l2.18-2.12c.44-.43,.2-1.18-.41-1.27l-3.01-.44c-.24-.04-.45-.19-.56-.41l-1.35-2.73c-.27-.55-1.06-.55-1.34,0l-1.35,2.73c-.11,.22-.32,.37-.56,.41l-3.01,.44c-.61,.09-.86,.84-.41,1.27l2.18,2.12c.18,.17,.26,.42,.21,.66l-.51,3c-.1,.61,.53,1.07,1.08,.79l2.69-1.41c.22-.11,.48-.11,.69,0Z"/><path class="d" d="M140.06,83.91l2.69,1.41c.55,.29,1.19-.18,1.08-.79l-.51-3c-.04-.24,.04-.49,.21-.66l2.18-2.12c.44-.43,.2-1.18-.41-1.27l-3.01-.44c-.24-.04-.45-.19-.56-.41l-1.35-2.73c-.27-.55-1.06-.55-1.34,0l-1.35,2.73c-.11,.22-.32,.37-.56,.41l-3.01,.44c-.61,.09-.86,.84-.41,1.27l2.18,2.12c.18,.17,.26,.42,.21,.66l-.51,3c-.1,.61,.53,1.07,1.08,.79l2.69-1.41c.22-.11,.48-.11,.69,0Z"/><path class="d" d="M80.51,83.91l2.69,1.41c.55,.29,1.19-.18,1.08-.79l-.51-3c-.04-.24,.04-.49,.21-.66l2.18-2.12c.44-.43,.2-1.18-.41-1.27l-3.01-.44c-.24-.04-.45-.19-.56-.41l-1.35-2.73c-.27-.55-1.06-.55-1.34,0l-1.35,2.73c-.11,.22-.32,.37-.56,.41l-3.01,.44c-.61,.09-.86,.84-.41,1.27l2.18,2.12c.18,.17,.26,.42,.21,.66l-.51,3c-.1,.61,.53,1.07,1.08,.79l2.69-1.41c.22-.11,.48-.11,.69,0Z"/><path class="d" d="M50.74,83.91l2.69,1.41c.55,.29,1.19-.18,1.08-.79l-.51-3c-.04-.24,.04-.49,.21-.66l2.18-2.12c.44-.43,.2-1.18-.41-1.27l-3.01-.44c-.24-.04-.45-.19-.56-.41l-1.35-2.73c-.27-.55-1.06-.55-1.34,0l-1.35,2.73c-.11,.22-.32,.37-.56,.41l-3.01,.44c-.61,.09-.86,.84-.41,1.27l2.18,2.12c.18,.17,.26,.42,.21,.66l-.51,3c-.1,.61,.53,1.07,1.08,.79l2.69-1.41c.22-.11,.48-.11,.69,0Z"/><path class="d" d="M20.97,83.91l2.69,1.41c.55,.29,1.19-.18,1.08-.79l-.51-3c-.04-.24,.04-.49,.21-.66l2.18-2.12c.44-.43,.2-1.18-.41-1.27l-3.01-.44c-.24-.04-.45-.19-.56-.41l-1.35-2.73c-.27-.55-1.06-.55-1.34,0l-1.35,2.73c-.11,.22-.32,.37-.56,.41l-3.01,.44c-.61,.09-.86,.84-.41,1.27l2.18,2.12c.18,.17,.26,.42,.21,.66l-.51,3c-.1,.61,.53,1.07,1.08,.79l2.69-1.41c.22-.11,.48-.11,.69,0Z"/></g><g><path class="d" d="M125.85,98.62l2.69,1.41c.55,.29,1.19-.18,1.08-.79l-.51-3c-.04-.24,.04-.49,.21-.66l2.18-2.12c.44-.43,.2-1.18-.41-1.27l-3.01-.44c-.24-.04-.45-.19-.56-.41l-1.35-2.73c-.27-.55-1.06-.55-1.34,0l-1.35,2.73c-.11,.22-.32,.37-.56,.41l-3.01,.44c-.61,.09-.86,.84-.41,1.27l2.18,2.12c.18,.17,.26,.42,.21,.66l-.51,3c-.1,.61,.53,1.07,1.08,.79l2.69-1.41c.22-.11,.48-.11,.69,0Z"/><path class="d" d="M96.08,98.62l2.69,1.41c.55,.29,1.19-.18,1.08-.79l-.51-3c-.04-.24,.04-.49,.21-.66l2.18-2.12c.44-.43,.2-1.18-.41-1.27l-3.01-.44c-.24-.04-.45-.19-.56-.41l-1.35-2.73c-.27-.55-1.06-.55-1.34,0l-1.35,2.73c-.11,.22-.32,.37-.56,.41l-3.01,.44c-.61,.09-.86,.84-.41,1.27l2.18,2.12c.18,.17,.26,.42,.21,.66l-.51,3c-.1,.61,.53,1.07,1.08,.79l2.69-1.41c.22-.11,.48-.11,.69,0Z"/><path class="d" d="M66.31,98.62l2.69,1.41c.55,.29,1.19-.18,1.08-.79l-.51-3c-.04-.24,.04-.49,.21-.66l2.18-2.12c.44-.43,.2-1.18-.41-1.27l-3.01-.44c-.24-.04-.45-.19-.56-.41l-1.35-2.73c-.27-.55-1.06-.55-1.34,0l-1.35,2.73c-.11,.22-.32,.37-.56,.41l-3.01,.44c-.61,.09-.86,.84-.41,1.27l2.18,2.12c.18,.17,.26,.42,.21,.66l-.51,3c-.1,.61,.53,1.07,1.08,.79l2.69-1.41c.22-.11,.48-.11,.69,0Z"/><path class="d" d="M36.54,98.62l2.69,1.41c.55,.29,1.19-.18,1.08-.79l-.51-3c-.04-.24,.04-.49,.21-.66l2.18-2.12c.44-.43,.2-1.18-.41-1.27l-3.01-.44c-.24-.04-.45-.19-.56-.41l-1.35-2.73c-.27-.55-1.06-.55-1.34,0l-1.35,2.73c-.11,.22-.32,.37-.56,.41l-3.01,.44c-.61,.09-.86,.84-.41,1.27l2.18,2.12c.18,.17,.26,.42,.21,.66l-.51,3c-.1,.61,.53,1.07,1.08,.79l2.69-1.41c.22-.11,.48-.11,.69,0Z"/></g><g><path class="d" d="M110.28,113.34l2.69,1.41c.55,.29,1.19-.18,1.08-.79l-.51-3c-.04-.24,.04-.49,.21-.66l2.18-2.12c.44-.43,.2-1.18-.41-1.27l-3.01-.44c-.24-.04-.45-.19-.56-.41l-1.35-2.73c-.27-.55-1.06-.55-1.34,0l-1.35,2.73c-.11,.22-.32,.37-.56,.41l-3.01,.44c-.61,.09-.86,.84-.41,1.27l2.18,2.12c.18,.17,.26,.42,.21,.66l-.51,3c-.1,.61,.53,1.07,1.08,.79l2.69-1.41c.22-.11,.48-.11,.69,0Z"/><path class="d" d="M140.06,113.34l2.69,1.41c.55,.29,1.19-.18,1.08-.79l-.51-3c-.04-.24,.04-.49,.21-.66l2.18-2.12c.44-.43,.2-1.18-.41-1.27l-3.01-.44c-.24-.04-.45-.19-.56-.41l-1.35-2.73c-.27-.55-1.06-.55-1.34,0l-1.35,2.73c-.11,.22-.32,.37-.56,.41l-3.01,.44c-.61,.09-.86,.84-.41,1.27l2.18,2.12c.18,.17,.26,.42,.21,.66l-.51,3c-.1,.61,.53,1.07,1.08,.79l2.69-1.41c.22-.11,.48-.11,.69,0Z"/><path class="d" d="M80.51,113.34l2.69,1.41c.55,.29,1.19-.18,1.08-.79l-.51-3c-.04-.24,.04-.49,.21-.66l2.18-2.12c.44-.43,.2-1.18-.41-1.27l-3.01-.44c-.24-.04-.45-.19-.56-.41l-1.35-2.73c-.27-.55-1.06-.55-1.34,0l-1.35,2.73c-.11,.22-.32,.37-.56,.41l-3.01,.44c-.61,.09-.86,.84-.41,1.27l2.18,2.12c.18,.17,.26,.42,.21,.66l-.51,3c-.1,.61,.53,1.07,1.08,.79l2.69-1.41c.22-.11,.48-.11,.69,0Z"/><path class="d" d="M50.74,113.34l2.69,1.41c.55,.29,1.19-.18,1.08-.79l-.51-3c-.04-.24,.04-.49,.21-.66l2.18-2.12c.44-.43,.2-1.18-.41-1.27l-3.01-.44c-.24-.04-.45-.19-.56-.41l-1.35-2.73c-.27-.55-1.06-.55-1.34,0l-1.35,2.73c-.11,.22-.32,.37-.56,.41l-3.01,.44c-.61,.09-.86,.84-.41,1.27l2.18,2.12c.18,.17,.26,.42,.21,.66l-.51,3c-.1,.61,.53,1.07,1.08,.79l2.69-1.41c.22-.11,.48-.11,.69,0Z"/><path class="d" d="M20.97,113.34l2.69,1.41c.55,.29,1.19-.18,1.08-.79l-.51-3c-.04-.24,.04-.49,.21-.66l2.18-2.12c.44-.43,.2-1.18-.41-1.27l-3.01-.44c-.24-.04-.45-.19-.56-.41l-1.35-2.73c-.27-.55-1.06-.55-1.34,0l-1.35,2.73c-.11,.22-.32,.37-.56,.41l-3.01,.44c-.61,.09-.86,.84-.41,1.27l2.18,2.12c.18,.17,.26,.42,.21,.66l-.51,3c-.1,.61,.53,1.07,1.08,.79l2.69-1.41c.22-.11,.48-.11,.69,0Z"/></g></g></g></g></g></svg>